<svg width="64" height="64" viewBox="0 0 64 64" fill="none" xmlns="http://www.w3.org/2000/svg">
  <rect x="8" y="8" width="48" height="48" rx="12" fill="#1E8E5A"/>
  <ellipse cx="27" cy="23" rx="11" ry="5" fill="#E8FFF2"/>
  <path d="M16 23V35C16 37.7614 20.9249 40 27 40C33.0751 40 38 37.7614 38 35V23" fill="#8EE0B5"/>
  <path d="M16 23C16 25.7614 20.9249 28 27 28C33.0751 28 38 25.7614 38 23" stroke="#1E8E5A" stroke-width="2.2"/>
  <path d="M16 29C16 31.7614 20.9249 34 27 34C33.0751 34 38 31.7614 38 29" stroke="#1E8E5A" stroke-width="2.2"/>
  <path d="M41 20L45 28L53 29L47 35L49 43L41 39L33 43L35 35L29 29L37 28L41 20Z" fill="#D7FFE8" stroke="#1E8E5A" stroke-width="2"/>
</svg>
